<?xml version="1.0" encoding="UTF-8" standalone="no"?>
<svg
   xmlns:dc="http://purl.org/dc/elements/1.1/"
   xmlns:cc="http://web.resource.org/cc/"
   xmlns:rdf="http://www.w3.org/1999/02/22-rdf-syntax-ns#"
   xmlns:svg="http://www.w3.org/2000/svg"
   xmlns="http://www.w3.org/2000/svg"
   xmlns:xlink="http://www.w3.org/1999/xlink"
   xmlns:sodipodi="http://sodipodi.sourceforge.net/DTD/sodipodi-0.dtd"
   xmlns:inkscape="http://www.inkscape.org/namespaces/inkscape"
   height="512"
   width="512"
   _SVGFile__filename="oldscale/apps/kcron.svg"
   version="1.0"
   y="0"
   x="0"
   id="svg1"
   sodipodi:version="0.32"
   inkscape:version="0.45.1"
   sodipodi:docname="charm.svg"
   sodipodi:docbase="/Users/mirko/Documents/KDAB/svk/charm-kde/trunk/Charm/Icons"
   inkscape:output_extension="org.inkscape.output.svg.inkscape"
   inkscape:export-filename="/Users/mirko/Documents/KDAB/svk/charm-kde/trunk/Charm/Icons/Charm-512x512.png"
   inkscape:export-xdpi="91.790001"
   inkscape:export-ydpi="91.790001">
  <sodipodi:namedview
     id="base"
     pagecolor="#ffffff"
     bordercolor="#666666"
     borderopacity="1.0"
     inkscape:pageopacity="0.0"
     inkscape:pageshadow="2"
     inkscape:zoom="0.63822919"
     inkscape:cx="715.3876"
     inkscape:cy="266.42574"
     inkscape:window-width="1225"
     inkscape:window-height="756"
     inkscape:window-x="55"
     inkscape:window-y="0"
     inkscape:current-layer="svg1"
     width="512px"
     height="512px"
     showgrid="true"
     gridspacingx="16px"
     gridspacingy="16px" />
  <defs
     id="defs3">
    <linearGradient
       id="linearGradient900">
      <stop
         style="stop-color: #000000;stop-opacity: 1.0;"
         id="stop901"
         offset="0" />
      <stop
         style="stop-color:#ffffff;stop-opacity:1;"
         id="stop902"
         offset="1" />
    </linearGradient>
    <linearGradient
       xlink:href="#linearGradient900"
       id="linearGradient903" />
    <linearGradient
       xlink:href="#linearGradient900"
       id="linearGradient904" />
    <linearGradient
       xlink:href="#linearGradient900"
       id="linearGradient905" />
    <linearGradient
       xlink:href="#linearGradient900"
       id="linearGradient906" />
    <linearGradient
       xlink:href="#linearGradient900"
       id="linearGradient907" />
  </defs>
  <metadata
     id="metadata23">
    <RDF
       id="RDF24">
      <Work
         about=""
         id="Work25">
        <format
           id="format26">image/svg+xml</format>
        <type
           id="type28"
           resource="http://purl.org/dc/dcmitype/StillImage" />
      </Work>
    </RDF>
    <rdf:RDF>
      <cc:Work
         rdf:about="">
        <dc:format>image/svg+xml</dc:format>
        <dc:type
           rdf:resource="http://purl.org/dc/dcmitype/StillImage" />
      </cc:Work>
    </rdf:RDF>
  </metadata>
  <g
     id="g2226"
     transform="matrix(0.9780088,0,0,0.9780088,4.1596555,4.131947)">
    <path
       inkscape:export-ydpi="910.22931"
       inkscape:export-xdpi="910.22931"
       inkscape:export-filename="/Users/mirko/Documents/KDAB/svk/charm-kde/trunk/Charm/Icons/Charm-512x512.png"
       id="rect825"
       d="M 27.421843,17.928068 L 460.13651,17.928068 C 470.39323,17.928068 478.65045,26.185144 478.65045,36.441695 L 478.65045,469.14903 C 478.65045,479.40561 470.39323,487.66271 460.13651,487.66271 L 27.421843,487.66271 C 17.165125,487.66271 8.9079007,479.40561 8.9079007,469.14903 L 8.9079007,36.441695 C 8.9079007,26.185144 17.165125,17.928068 27.421843,17.928068 z "
       style="font-size:12px;fill:#dde9af;fill-opacity:1;fill-rule:evenodd;stroke-width:3.125" />
    <path
       id="path826"
       d="M 487.42819,468.08949 L 425.00185,212.75607 L 400.03135,408.88177 L 351.47744,347.82377 L 254.36989,318.21988 L 243.27191,270.11358 L 225.23758,424.60884 L 186.39447,358.00009 L 148.93872,438.48563 L 108.70834,231.25849 L 85.125107,452.36242 L 22.69876,404.25611 L 22.69876,469.93977 L 487.42819,468.08949 z "
       style="font-size:12px;fill:#abc837;fill-opacity:1;fill-rule:evenodd;stroke:#796714;stroke-width:18.59549522;stroke-linecap:round;stroke-linejoin:round;stroke-opacity:1" />
    <path
       d="M 40.272031,20.498102 C 30.015306,20.498102 21.758087,28.755182 21.758087,39.011734 L 21.758087,471.71909 C 21.758087,481.97567 30.015306,490.23271 40.272031,490.23271 L 472.98669,490.23271 C 483.24345,490.23271 491.50064,481.97567 491.50064,471.71909 L 491.50064,39.011734 C 491.50064,28.755182 483.24345,20.498102 472.98669,20.498102 L 40.272031,20.498102 z "
       style="font-size:12px;fill:none;fill-rule:evenodd;stroke:#000000;stroke-width:28.99620438;stroke-linejoin:round;stroke-opacity:1"
       id="rect827" />
    <g
       id="use2260"
       transform="matrix(-8.4142826,-3.9109626,3.9109626,-8.4142826,264.92122,687.72125)">
      <path
         style="font-size:12px;fill:#000000;fill-opacity:1;fill-rule:evenodd;stroke:#000000;stroke-width:2.00970888;stroke-linejoin:round;stroke-opacity:1"
         d="M 26.72864,32.13462 C 26.5754,32.13462 26.45204,32.25798 26.45204,32.41122 L 26.45204,38.87591 C 26.45204,39.02915 26.5754,39.15251 26.72864,39.15251 L 33.19333,39.15251 C 33.34657,39.15251 33.46993,39.02915 33.46993,38.87591 L 33.46993,32.41122 C 33.46993,32.25798 33.34657,32.13462 33.19333,32.13462 L 26.72864,32.13462 z "
         transform="matrix(0.932971,0,0,0.932971,2.060982,1.374795)"
         id="path2264" />
      <path
         style="font-size:12px;fill:none;fill-opacity:1;fill-rule:evenodd;stroke:#ffffff;stroke-width:7.5;stroke-linejoin:round;stroke-miterlimit:4;stroke-opacity:1"
         d="M 34.2032,41.689963 C 34.2032,49.382234 27.96019,55.625232 20.267924,55.625232 C 12.575652,55.625232 6.332654,49.382234 6.332654,41.689963 C 6.332654,33.997692 12.575652,27.754694 20.267924,27.754694 C 27.96019,27.754694 34.2032,33.997692 34.2032,41.689963 z "
         id="path2266" />
      <g
         style="font-size:12px"
         transform="matrix(0.934189,0,0,0.934189,25.29937,1.608501)"
         id="g2268">
        <path
           style="fill:#ffffff;fill-opacity:1;fill-rule:evenodd;stroke:#000000;stroke-width:2.6761179;stroke-opacity:1"
           d="M 9.531043,42.90509 C 9.531043,51.13926 2.848239,57.82206 -5.385929,57.82206 C -13.6201,57.82206 -20.3029,51.13926 -20.3029,42.90509 C -20.3029,34.67092 -13.6201,27.98812 -5.385929,27.98812 C 2.848239,27.98812 9.531043,34.67092 9.531043,42.90509 z "
           id="path2270" />
        <path
           style="fill:none;fill-opacity:0.75;fill-rule:evenodd;stroke:#000000;stroke-width:3.34514761;stroke-linecap:round;stroke-linejoin:round;stroke-opacity:1"
           d="M -5.362559,42.74922 L -5.362559,32.20352"
           id="path2272" />
        <path
           style="fill:none;fill-opacity:0.75;fill-rule:evenodd;stroke:#000000;stroke-width:3.34514761;stroke-linecap:round;stroke-linejoin:round;stroke-opacity:1"
           d="M -4.814135,42.95712 L 2.559311,47.21418"
           id="path2274" />
        <path
           style="fill:#000000;fill-opacity:1;fill-rule:evenodd;stroke:#000000;stroke-width:2.6761179;stroke-linecap:round;stroke-linejoin:round;stroke-opacity:1"
           d="M -4.034557,42.85318 C -4.034557,43.59913 -4.63997,44.20455 -5.385924,44.20455 C -6.131879,44.20455 -6.737291,43.59913 -6.737291,42.85318 C -6.737291,42.10722 -6.131879,41.50181 -5.385924,41.50181 C -4.63997,41.50181 -4.034557,42.10722 -4.034557,42.85318 z "
           id="path2276" />
      </g>
    </g>
  </g>
</svg>
